<svg xmlns="http://www.w3.org/2000/svg" xmlns:xlink="http://www.w3.org/1999/xlink" width="570.474" height="180" viewBox="0 0 570.474 180">
  <defs>
    <linearGradient id="linear-gradient" y1="0.5" x2="1" y2="0.5" gradientUnits="objectBoundingBox">
      <stop offset="0" stop-color="#faf9db"/>
      <stop offset="0.28" stop-color="#ddbe71"/>
      <stop offset="0.75" stop-color="#a37f42"/>
    </linearGradient>
    <linearGradient id="linear-gradient-2" x1="0.5" y1="0.001" x2="0.5" y2="0.966" xlink:href="#linear-gradient"/>
    <linearGradient id="linear-gradient-3" x1="0.5" y1="3.679" x2="0.5" y2="35.622" xlink:href="#linear-gradient"/>
    <linearGradient id="linear-gradient-4" x1="0.5" y1="3.179" x2="0.5" y2="35.122" xlink:href="#linear-gradient"/>
    <linearGradient id="linear-gradient-5" x1="0.5" y1="0.834" x2="0.5" y2="32.777" xlink:href="#linear-gradient"/>
    <linearGradient id="linear-gradient-6" x1="0.5" y1="-1.533" x2="0.5" y2="30.411" xlink:href="#linear-gradient"/>
    <linearGradient id="linear-gradient-7" x1="0.5" y1="-4.277" x2="0.5" y2="27.666" xlink:href="#linear-gradient"/>
    <linearGradient id="linear-gradient-8" x1="0.5" y1="-7.031" x2="0.5" y2="24.912" xlink:href="#linear-gradient"/>
    <linearGradient id="linear-gradient-9" x1="0.5" y1="-10.173" x2="0.5" y2="21.771" xlink:href="#linear-gradient"/>
    <linearGradient id="linear-gradient-10" x1="0.5" y1="-13.594" x2="0.5" y2="18.349" xlink:href="#linear-gradient"/>
    <linearGradient id="linear-gradient-11" x1="0.5" y1="-16.938" x2="0.5" y2="15.005" xlink:href="#linear-gradient"/>
    <linearGradient id="linear-gradient-12" x1="0.5" y1="-20.424" x2="0.5" y2="11.519" xlink:href="#linear-gradient"/>
    <linearGradient id="linear-gradient-13" x1="0.5" y1="-23.4" x2="0.5" y2="8.543" xlink:href="#linear-gradient"/>
    <linearGradient id="linear-gradient-14" x1="0.5" y1="-26.112" x2="0.5" y2="5.831" xlink:href="#linear-gradient"/>
    <linearGradient id="linear-gradient-15" x1="0.5" y1="-28.451" x2="0.5" y2="3.492" xlink:href="#linear-gradient"/>
    <linearGradient id="linear-gradient-16" x1="0.5" y1="-31.616" x2="0.5" y2="0.327" xlink:href="#linear-gradient"/>
    <linearGradient id="linear-gradient-17" x1="0.5" y1="-30.263" x2="0.5" y2="1.68" xlink:href="#linear-gradient"/>
    <linearGradient id="linear-gradient-32" x1="0.5" y1="-0.203" x2="0.5" y2="3.528" xlink:href="#linear-gradient"/>
    <linearGradient id="linear-gradient-33" x1="0.5" y1="-26.52" x2="0.5" y2="52.988" xlink:href="#linear-gradient"/>
    <linearGradient id="linear-gradient-34" x1="0.5" y1="-8.287" x2="0.5" y2="13.673" xlink:href="#linear-gradient"/>
    <linearGradient id="linear-gradient-35" x1="0.5" y1="-0.594" x2="0.5" y2="0.954" xlink:href="#linear-gradient"/>
    <linearGradient id="linear-gradient-36" x1="0.5" y1="-1.638" x2="0.5" y2="2.235" xlink:href="#linear-gradient"/>
    <linearGradient id="linear-gradient-37" x1="0.5" y1="-9.214" x2="0.5" y2="3.95" xlink:href="#linear-gradient"/>
    <linearGradient id="linear-gradient-38" x1="0.501" y1="-8.287" x2="0.501" y2="13.673" xlink:href="#linear-gradient"/>
    <linearGradient id="linear-gradient-39" x1="0.5" y1="-0.594" x2="0.5" y2="0.954" xlink:href="#linear-gradient"/>
    <linearGradient id="linear-gradient-42" x1="0.5" y1="-0.341" x2="0.5" y2="9.582" xlink:href="#linear-gradient"/>
    <linearGradient id="linear-gradient-43" x1="0.5" y1="-3.516" x2="0.5" y2="6.407" xlink:href="#linear-gradient"/>
    <linearGradient id="linear-gradient-44" x1="0.5" y1="-6.526" x2="0.5" y2="3.397" xlink:href="#linear-gradient"/>
    <linearGradient id="linear-gradient-45" y1="0.5" x2="1" y2="0.5" gradientUnits="objectBoundingBox">
      <stop offset="0" stop-color="#712a2a"/>
      <stop offset="0.55" stop-color="#ec2127"/>
      <stop offset="1" stop-color="#6e1110"/>
    </linearGradient>
    <linearGradient id="linear-gradient-46" x1="1.186" y1="0.258" x2="0.003" y2="0.74" gradientUnits="objectBoundingBox">
      <stop offset="0" stop-color="#712a2a"/>
      <stop offset="0.15" stop-color="#ef3743"/>
      <stop offset="0.45" stop-color="#761213"/>
      <stop offset="0.67" stop-color="#c72127"/>
      <stop offset="1" stop-color="#6e1110"/>
    </linearGradient>
    <linearGradient id="linear-gradient-47" x1="-0.041" y1="0.471" x2="0.998" y2="0.521" gradientUnits="objectBoundingBox">
      <stop offset="0" stop-color="#661011"/>
      <stop offset="0.19" stop-color="#e53438"/>
      <stop offset="0.45" stop-color="#a31e22"/>
      <stop offset="0.74" stop-color="#e82127"/>
      <stop offset="1" stop-color="#660f12"/>
    </linearGradient>
    <linearGradient id="linear-gradient-48" x1="0" y1="0.5" x2="1" y2="0.5" xlink:href="#linear-gradient-47"/>
    <linearGradient id="linear-gradient-56" x1="0.878" y1="0.736" x2="0" y2="-0.226" gradientUnits="objectBoundingBox">
      <stop offset="0.25" stop-color="#a37f42"/>
      <stop offset="0.72" stop-color="#ddbe71"/>
      <stop offset="1" stop-color="#faf9db"/>
    </linearGradient>
    <linearGradient id="linear-gradient-57" x1="3.345" y1="2.221" x2="-2.064" y2="-1.019" xlink:href="#linear-gradient-56"/>
    <linearGradient id="linear-gradient-58" x1="2.277" y1="1.261" x2="-5.85" y2="-2.101" xlink:href="#linear-gradient-56"/>
    <linearGradient id="linear-gradient-59" x1="14.685" y1="3.441" x2="-7.479" y2="-1.09" xlink:href="#linear-gradient-56"/>
    <linearGradient id="linear-gradient-60" x1="22.572" y1="2.318" x2="-30.058" y2="-2.029" xlink:href="#linear-gradient-56"/>
    <linearGradient id="linear-gradient-61" x1="14.242" y1="3.96" x2="-30.812" y2="-7.307" xlink:href="#linear-gradient-56"/>
    <linearGradient id="linear-gradient-62" x1="8.936" y1="4" x2="-28.474" y2="-11.521" xlink:href="#linear-gradient-56"/>
    <linearGradient id="linear-gradient-63" x1="13.088" y1="5.724" x2="-24.321" y2="-9.796" xlink:href="#linear-gradient-56"/>
    <linearGradient id="linear-gradient-64" x1="9.235" y1="1.158" x2="-48.563" y2="-3.218" xlink:href="#linear-gradient-56"/>
    <linearGradient id="linear-gradient-65" x1="3.414" y1="2.191" x2="-5.358" y2="-2.912" xlink:href="#linear-gradient-56"/>
    <linearGradient id="linear-gradient-66" x1="9.101" y1="3.4" x2="-1.738" y2="-0.176" xlink:href="#linear-gradient-56"/>
    <linearGradient id="linear-gradient-67" x1="1.086" y1="0.648" x2="-11.3" y2="-2.817" xlink:href="#linear-gradient-56"/>
  </defs>
  <g id="Group_343" data-name="Group 343" transform="translate(-2657.168 711)">
    <g id="Group_342" data-name="Group 342" transform="translate(46 142)">
      <g id="Group_275" data-name="Group 275" transform="translate(1969 -867)">
        <path id="Path_8200" data-name="Path 8200" d="M-66.438,0a2.384,2.384,0,0,0-1.269.279,1.171,1.171,0,0,0-.441,1.071V5.58H-70.38V1.314A2.92,2.92,0,0,1-69.4-1.224,4.282,4.282,0,0,1-67.086-2a8.729,8.729,0,0,1-.252-2.124,4.6,4.6,0,0,1,.5-2.133A3.938,3.938,0,0,1-65.367-7.83a4.25,4.25,0,0,1,2.277-.594,3.622,3.622,0,0,1,2.133.612,3.757,3.757,0,0,1,1.314,1.656,5.959,5.959,0,0,1,.441,2.34,6.5,6.5,0,0,1-.315,1.98A3.682,3.682,0,0,1-60.624-.153,3.084,3.084,0,0,1-62.73.54,10.232,10.232,0,0,1-65.376,0Zm1.368-4.032a7.33,7.33,0,0,0,.306,2.106q.792.252,1.188.342a3.342,3.342,0,0,0,.738.09,1.154,1.154,0,0,0,1.044-.729,3.565,3.565,0,0,0,.378-1.665,3.819,3.819,0,0,0-.2-1.2,2.5,2.5,0,0,0-.6-1.008,1.357,1.357,0,0,0-1-.405,1.581,1.581,0,0,0-1.35.7A2.948,2.948,0,0,0-65.07-4.032ZM-53.3,0q-3.888,0-3.888-3.276v-8.856h2.322v8.586a1.651,1.651,0,0,0,.36,1.161A1.7,1.7,0,0,0-53.226-2h.954V0Zm.7-2h2.034a6.71,6.71,0,0,0,1.386-.144A8.364,8.364,0,0,1-51.588-5.76a3.245,3.245,0,0,1,1.719-2.034,6.211,6.211,0,0,1,2.925-.7,6.67,6.67,0,0,1,2.088.324,3.745,3.745,0,0,1,1.611.99,2.266,2.266,0,0,1,.621,1.6,2.985,2.985,0,0,1-.639,1.548,9.535,9.535,0,0,1-1.719,1.854A5.518,5.518,0,0,0-43.65-2h2.178V0H-43.74a7.726,7.726,0,0,1-3.4-.792A7.861,7.861,0,0,1-50.454,0H-52.6Zm3.276-3.834A5.86,5.86,0,0,0-47-3.114a6.324,6.324,0,0,0,1.5-1.323,2.09,2.09,0,0,0,.567-1.143q0-.468-.612-.738A3.594,3.594,0,0,0-47-6.588a4.139,4.139,0,0,0-1.278.216A3.032,3.032,0,0,0-49.32-5.832ZM-40.842-2a1.7,1.7,0,0,0,1.278-.387,1.651,1.651,0,0,0,.36-1.161v-8.586h2.322v8.856Q-36.882,0-40.77,0H-41.8V-2Zm6.588,2V-12.132h2.322V0Zm23.922,0a4.565,4.565,0,0,1-1.053-.135,4.028,4.028,0,0,1-1.071-.423,3.176,3.176,0,0,1-1.215.441A10.921,10.921,0,0,1-15.408,0h-4.518a7.769,7.769,0,0,1-3.942-.873q-1.494-.873-1.494-3.375a13.883,13.883,0,0,1,.54-2.916l2.16.5a12.57,12.57,0,0,0-.45,2.412,1.93,1.93,0,0,0,.558,1.521,2.441,2.441,0,0,0,1.287.6A14.286,14.286,0,0,0-19.458-2h4.176a3.58,3.58,0,0,0,.936-.09.663.663,0,0,0,.423-.306,1.453,1.453,0,0,0,.117-.666V-8.28h2.3v6.048a2.121,2.121,0,0,0,.54.171,3.3,3.3,0,0,0,.63.063h1.026V0ZM-16.29,2.988a1.241,1.241,0,0,1-.387.954,1.408,1.408,0,0,1-1,.36,1.31,1.31,0,0,1-.954-.369,1.263,1.263,0,0,1-.378-.945,1.248,1.248,0,0,1,.387-.945,1.364,1.364,0,0,1,.981-.369,1.341,1.341,0,0,1,.963.369A1.248,1.248,0,0,1-16.29,2.988Zm8.46-12.78v-1.17h.558a1.67,1.67,0,0,1-.126-.7,1.555,1.555,0,0,1,.54-1.305,2.211,2.211,0,0,1,1.4-.423A4.006,4.006,0,0,1-4-13.05l-.432,1.1a2.627,2.627,0,0,0-1.026-.288.563.563,0,0,0-.387.135.536.536,0,0,0-.153.423.956.956,0,0,0,.216.72h1.62v1.17ZM-4.338-8.28v5Q-4.338,0-8.244,0H-9.63V-2h1.314a1.766,1.766,0,0,0,1.3-.387,1.625,1.625,0,0,0,.369-1.161V-8.28ZM2.718,0Q-1.17,0-1.17-3.276v-8.856H1.152v8.586a1.651,1.651,0,0,0,.36,1.161A1.7,1.7,0,0,0,2.79-2h.954V0ZM8.91-11.232a1.241,1.241,0,0,1-.387.954,1.408,1.408,0,0,1-1,.36,1.31,1.31,0,0,1-.954-.369,1.263,1.263,0,0,1-.378-.945,1.248,1.248,0,0,1,.387-.945,1.364,1.364,0,0,1,.981-.369,1.341,1.341,0,0,1,.963.369A1.248,1.248,0,0,1,8.91-11.232ZM9.846,0A4.565,4.565,0,0,1,8.793-.135,4.028,4.028,0,0,1,7.722-.558a3.176,3.176,0,0,1-1.215.441A10.921,10.921,0,0,1,4.77,0H3.42V-2H4.9a3.58,3.58,0,0,0,.936-.09.663.663,0,0,0,.423-.306,1.453,1.453,0,0,0,.117-.666V-8.28h2.3v6.048a2.121,2.121,0,0,0,.54.171A3.3,3.3,0,0,0,9.846-2H11.34V0ZM11.97-2a1.7,1.7,0,0,0,1.278-.387,1.651,1.651,0,0,0,.36-1.161v-8.586H15.93v8.856Q15.93,0,12.042,0H11.016V-2Zm6.588,2V-12.132H20.88V0ZM42.48,0a4.565,4.565,0,0,1-1.053-.135,4.028,4.028,0,0,1-1.071-.423,3.176,3.176,0,0,1-1.215.441A10.921,10.921,0,0,1,37.4,0H32.886a7.769,7.769,0,0,1-3.942-.873Q27.45-1.746,27.45-4.248a13.883,13.883,0,0,1,.54-2.916l2.16.5a12.57,12.57,0,0,0-.45,2.412,1.93,1.93,0,0,0,.558,1.521,2.441,2.441,0,0,0,1.287.6A14.286,14.286,0,0,0,33.354-2H37.53a3.58,3.58,0,0,0,.936-.09.663.663,0,0,0,.423-.306,1.453,1.453,0,0,0,.117-.666V-8.28h2.3v6.048a2.121,2.121,0,0,0,.54.171A3.3,3.3,0,0,0,42.48-2h1.026V0ZM36.522,2.988a1.241,1.241,0,0,1-.387.954,1.408,1.408,0,0,1-1,.36,1.31,1.31,0,0,1-.954-.369,1.263,1.263,0,0,1-.378-.945,1.248,1.248,0,0,1,.387-.945,1.364,1.364,0,0,1,.981-.369,1.341,1.341,0,0,1,.963.369A1.248,1.248,0,0,1,36.522,2.988Zm10.44-14.22a1.241,1.241,0,0,1-.387.954,1.408,1.408,0,0,1-1,.36,1.31,1.31,0,0,1-.954-.369,1.263,1.263,0,0,1-.378-.945,1.248,1.248,0,0,1,.387-.945,1.364,1.364,0,0,1,.981-.369,1.341,1.341,0,0,1,.963.369A1.248,1.248,0,0,1,46.962-11.232Zm3.294,0a1.241,1.241,0,0,1-.387.954,1.408,1.408,0,0,1-1,.36,1.31,1.31,0,0,1-.954-.369,1.263,1.263,0,0,1-.378-.945,1.209,1.209,0,0,1,.414-.945,1.461,1.461,0,0,1,1.008-.369,1.25,1.25,0,0,1,.936.369A1.3,1.3,0,0,1,50.256-11.232ZM49.608,0a4.565,4.565,0,0,1-1.053-.135,4.028,4.028,0,0,1-1.071-.423,3.176,3.176,0,0,1-1.215.441A10.921,10.921,0,0,1,44.532,0h-1.35V-2h1.476a3.58,3.58,0,0,0,.936-.09.663.663,0,0,0,.423-.306,1.453,1.453,0,0,0,.117-.666V-8.28h2.3v6.048a2.121,2.121,0,0,0,.54.171,3.3,3.3,0,0,0,.63.063H51.1V0Zm5.58-7.056a5.621,5.621,0,0,1,3.357.855A3.5,3.5,0,0,1,59.652-3.24V-2H60.7V0H50.778V-2h6.57V-3.186A3.4,3.4,0,0,0,57.2-4.3a1.092,1.092,0,0,0-.648-.612A4.226,4.226,0,0,0,54.99-5.13H52.452L51.66-6.48l5.85-6.012,1.53,1.458ZM66.114.54A10.232,10.232,0,0,1,63.468,0h-3.1V-2h1.386a8.729,8.729,0,0,1-.252-2.124,4.6,4.6,0,0,1,.5-2.133A3.938,3.938,0,0,1,63.477-7.83a4.25,4.25,0,0,1,2.277-.594,3.622,3.622,0,0,1,2.133.612A3.756,3.756,0,0,1,69.2-6.156a5.959,5.959,0,0,1,.441,2.34,6.5,6.5,0,0,1-.315,1.98A3.682,3.682,0,0,1,68.22-.153,3.084,3.084,0,0,1,66.114.54Zm-2.34-4.572a7.33,7.33,0,0,0,.306,2.106q.792.252,1.188.342a3.342,3.342,0,0,0,.738.09,1.154,1.154,0,0,0,1.044-.729,3.565,3.565,0,0,0,.378-1.665,3.82,3.82,0,0,0-.2-1.2,2.5,2.5,0,0,0-.6-1.008,1.357,1.357,0,0,0-1-.405,1.581,1.581,0,0,0-1.35.7A2.948,2.948,0,0,0,63.774-4.032ZM-33.354,32q-3.888,0-3.888-3.276V19.868h2.322v8.586a1.651,1.651,0,0,0,.36,1.161A1.7,1.7,0,0,0-33.282,30h.954v2Zm10.134,0h-2.358a4.565,4.565,0,0,1-1.053-.135,4.028,4.028,0,0,1-1.071-.423,3.176,3.176,0,0,1-1.215.441A10.921,10.921,0,0,1-30.654,32h-2V30h2.124a3.58,3.58,0,0,0,.936-.09.663.663,0,0,0,.423-.306,1.453,1.453,0,0,0,.117-.666V23.72h2.3v6.048a2.121,2.121,0,0,0,.54.171,3.3,3.3,0,0,0,.63.063h2.358ZM-29.5,33.692a1.341,1.341,0,0,1,.963.369,1.248,1.248,0,0,1,.387.945,1.241,1.241,0,0,1-.387.954,1.408,1.408,0,0,1-1,.36,1.31,1.31,0,0,1-.954-.369,1.263,1.263,0,0,1-.378-.945,1.248,1.248,0,0,1,.387-.945A1.364,1.364,0,0,1-29.5,33.692Zm3.348,0a1.25,1.25,0,0,1,.936.369,1.3,1.3,0,0,1,.36.945,1.241,1.241,0,0,1-.387.954,1.408,1.408,0,0,1-1,.36,1.31,1.31,0,0,1-.954-.369,1.263,1.263,0,0,1-.378-.945,1.209,1.209,0,0,1,.414-.945A1.461,1.461,0,0,1-26.154,33.692ZM-17.118,32a4.565,4.565,0,0,1-1.053-.135,4.028,4.028,0,0,1-1.071-.423,3.176,3.176,0,0,1-1.215.441A10.921,10.921,0,0,1-22.194,32h-1.35V30h1.476a3.58,3.58,0,0,0,.936-.09.663.663,0,0,0,.423-.306,1.453,1.453,0,0,0,.117-.666V23.72h2.3v6.048a2.121,2.121,0,0,0,.54.171,3.3,3.3,0,0,0,.63.063h1.494v2Zm-.918,2.988a1.241,1.241,0,0,1-.387.954,1.408,1.408,0,0,1-1,.36,1.31,1.31,0,0,1-.954-.369,1.263,1.263,0,0,1-.378-.945,1.248,1.248,0,0,1,.387-.945,1.364,1.364,0,0,1,.981-.369,1.341,1.341,0,0,1,.963.369A1.248,1.248,0,0,1-18.036,34.988ZM-6.516,32H-8.874a4.565,4.565,0,0,1-1.053-.135A4.028,4.028,0,0,1-11,31.442a3.176,3.176,0,0,1-1.215.441A10.921,10.921,0,0,1-13.95,32h-2V30h2.124a3.58,3.58,0,0,0,.936-.09.663.663,0,0,0,.423-.306,1.453,1.453,0,0,0,.117-.666V23.72h2.3v6.048a2.121,2.121,0,0,0,.54.171,3.3,3.3,0,0,0,.63.063h2.358ZM-12.8,33.692a1.341,1.341,0,0,1,.963.369,1.248,1.248,0,0,1,.387.945,1.241,1.241,0,0,1-.387.954,1.408,1.408,0,0,1-1,.36,1.31,1.31,0,0,1-.954-.369,1.263,1.263,0,0,1-.378-.945,1.248,1.248,0,0,1,.387-.945A1.364,1.364,0,0,1-12.8,33.692Zm3.348,0a1.25,1.25,0,0,1,.936.369,1.3,1.3,0,0,1,.36.945,1.241,1.241,0,0,1-.387.954,1.408,1.408,0,0,1-1,.36,1.31,1.31,0,0,1-.954-.369,1.263,1.263,0,0,1-.378-.945,1.209,1.209,0,0,1,.414-.945A1.461,1.461,0,0,1-9.45,33.692ZM-5.886,30a1.7,1.7,0,0,0,1.278-.387,1.651,1.651,0,0,0,.36-1.161V19.868h2.322v8.856Q-1.926,32-5.814,32H-6.84V30ZM7.992,20.768a1.241,1.241,0,0,1-.387.954,1.408,1.408,0,0,1-1,.36,1.31,1.31,0,0,1-.954-.369,1.263,1.263,0,0,1-.378-.945,1.248,1.248,0,0,1,.387-.945,1.364,1.364,0,0,1,.981-.369,1.341,1.341,0,0,1,.963.369A1.248,1.248,0,0,1,7.992,20.768Zm3.294,0a1.241,1.241,0,0,1-.387.954,1.408,1.408,0,0,1-1,.36,1.31,1.31,0,0,1-.954-.369,1.263,1.263,0,0,1-.378-.945,1.209,1.209,0,0,1,.414-.945,1.461,1.461,0,0,1,1.008-.369,1.25,1.25,0,0,1,.936.369A1.3,1.3,0,0,1,11.286,20.768Zm.072,7.848a1.368,1.368,0,0,0,.36,1.062,1.962,1.962,0,0,0,1.3.324h.756v2h-.81a6.311,6.311,0,0,1-2.223-.333A2.391,2.391,0,0,1,9.45,30.6,4.165,4.165,0,0,1,7,31.244,3.293,3.293,0,0,1,5.265,30.8,3.041,3.041,0,0,1,4.149,29.66,2.981,2.981,0,0,1,3.762,28.2,3.309,3.309,0,0,1,4.6,26,6.454,6.454,0,0,1,6.669,24.4a8.7,8.7,0,0,1,2.385-.81v-.5h2.3ZM6.03,28.13a1.206,1.206,0,0,0,.369.9,1.229,1.229,0,0,0,.891.36A2.048,2.048,0,0,0,8.478,29a1.2,1.2,0,0,0,.576-.981V25.466a5.634,5.634,0,0,0-1.4.54,3.834,3.834,0,0,0-1.161.936A1.84,1.84,0,0,0,6.03,28.13ZM14.4,30a1.7,1.7,0,0,0,1.278-.387,1.651,1.651,0,0,0,.36-1.161V19.868H18.36v8.856Q18.36,32,14.472,32H13.446V30Zm10.26-6.57a3.29,3.29,0,0,1,1.953.621,4.123,4.123,0,0,1,1.368,1.737,6.153,6.153,0,0,1,.5,2.52v3.2a5.1,5.1,0,0,1-1.2,3.6,4.3,4.3,0,0,1-3.321,1.3,6.767,6.767,0,0,1-2.43-.468l.594-1.908a5.645,5.645,0,0,0,1.908.4,2.106,2.106,0,0,0,1.584-.612,2.252,2.252,0,0,0,.594-1.638V32h-1.98a3.395,3.395,0,0,1-3.672-3.69,5.482,5.482,0,0,1,.54-2.4,4.62,4.62,0,0,1,1.485-1.8A3.5,3.5,0,0,1,24.66,23.432ZM26.208,30V28.49a4.9,4.9,0,0,0-.45-2.286,1.331,1.331,0,0,0-1.17-.846,1.316,1.316,0,0,0-.927.405,2.766,2.766,0,0,0-.666,1.071,3.962,3.962,0,0,0-.243,1.368,1.957,1.957,0,0,0,.405,1.359A1.751,1.751,0,0,0,24.5,30Zm7.038-6.678a27.311,27.311,0,0,1,3.087,3.033,4.648,4.648,0,0,1,1.413,2.727Q37.746,32,34.308,32H30.114V30h4.032q1.3,0,1.3-.81a3.341,3.341,0,0,0-1.125-1.863,23.743,23.743,0,0,0-2.475-2.277Z" transform="translate(1143 92)" fill="#060707"/>
        <path id="Path_8199" data-name="Path 8199" d="M-97.376-4.9h3.287l-1.617-5.1Zm.167-8.06h3.059L-89.562,0H-92.5l-.835-2.663h-4.772L-99,0h-2.83Zm8.1,5.247V-9.492h1.336v-2.672h2.479v2.672h1.556v1.784h-1.556v5.063a1.14,1.14,0,0,0,.149.734,1.645,1.645,0,0,0,.914.145q.114,0,.242,0t.25-.013V.088l-1.187.044a3.184,3.184,0,0,1-2.426-.615,1.832,1.832,0,0,1-.422-1.327v-5.9Zm5.994,0V-9.492h1.336v-2.672H-79.3v2.672h1.556v1.784H-79.3v5.063a1.14,1.14,0,0,0,.149.734,1.645,1.645,0,0,0,.914.145q.114,0,.242,0t.25-.013V.088l-1.187.044a3.184,3.184,0,0,1-2.426-.615,1.832,1.832,0,0,1-.422-1.327v-5.9Zm11.276,5.941a1.985,1.985,0,0,0,1.688-.782,3.639,3.639,0,0,0,.589-2.224,3.619,3.619,0,0,0-.589-2.219,1.99,1.99,0,0,0-1.687-.778,2,2,0,0,0-1.692.778,3.6,3.6,0,0,0-.593,2.219,3.619,3.619,0,0,0,.593,2.224A2,2,0,0,0-71.835-1.767Zm4.9-3.006a5.553,5.553,0,0,1-1.213,3.608,4.456,4.456,0,0,1-3.683,1.5,4.456,4.456,0,0,1-3.683-1.5,5.553,5.553,0,0,1-1.213-3.608,5.59,5.59,0,0,1,1.213-3.595,4.426,4.426,0,0,1,3.683-1.521,4.426,4.426,0,0,1,3.683,1.521A5.59,5.59,0,0,1-66.931-4.772Zm7-5.036q.07,0,.119,0l.215.013v2.566q-.237-.026-.422-.035t-.3-.009a2.078,2.078,0,0,0-2.03.984,3.829,3.829,0,0,0-.29,1.705V0h-2.522V-9.58h2.391v1.67a5.3,5.3,0,0,1,1.011-1.31A2.752,2.752,0,0,1-59.934-9.809Zm7.11,0a3.7,3.7,0,0,1,2.43.778,3.163,3.163,0,0,1,.945,2.58V0h-2.566V-5.827a2.659,2.659,0,0,0-.2-1.16,1.422,1.422,0,0,0-1.406-.738,1.744,1.744,0,0,0-1.749,1.081,3.713,3.713,0,0,0-.246,1.459V0h-2.5V-9.562H-55.7v1.4a4.252,4.252,0,0,1,.914-1.063A3.177,3.177,0,0,1-52.824-9.809Zm9.466,2.039a1.7,1.7,0,0,0-1.349.545,2.72,2.72,0,0,0-.6,1.477h3.894a2.181,2.181,0,0,0-.6-1.507A1.87,1.87,0,0,0-43.358-7.77Zm0-2.065a5.021,5.021,0,0,1,2.153.448,3.772,3.772,0,0,1,1.582,1.415,4.828,4.828,0,0,1,.729,1.978,12.771,12.771,0,0,1,.079,1.9h-6.557a2.381,2.381,0,0,0,.905,2.021,2.132,2.132,0,0,0,1.248.36,1.8,1.8,0,0,0,1.257-.439,2.087,2.087,0,0,0,.466-.659h2.558a3.178,3.178,0,0,1-.888,1.731A4.349,4.349,0,0,1-43.27.316,4.858,4.858,0,0,1-46.5-.861a4.75,4.75,0,0,1-1.4-3.832,5.326,5.326,0,0,1,1.261-3.814A4.312,4.312,0,0,1-43.358-9.835ZM-36.74,1.837l.316.018a3.948,3.948,0,0,0,.7-.026,1.262,1.262,0,0,0,.563-.2A1.352,1.352,0,0,0-34.749,1,1.319,1.319,0,0,0-34.6.422l-3.516-10h2.786l2.092,7.066,1.978-7.066h2.663L-31.88-.158a13.23,13.23,0,0,1-1.5,3.379,2.856,2.856,0,0,1-2.215.655q-.334,0-.536,0t-.606-.031ZM-14.028-8.912a2.536,2.536,0,0,0-1.5-1.854,3.691,3.691,0,0,0-1.485-.29,3.226,3.226,0,0,0-2.571,1.182,5.373,5.373,0,0,0-1.006,3.555A4.417,4.417,0,0,0-19.5-2.936a3.579,3.579,0,0,0,2.479.993,3.2,3.2,0,0,0,2.232-.787A3.4,3.4,0,0,0-13.72-4.79h-3V-6.952h5.4V0h-1.793l-.272-1.617a6.207,6.207,0,0,1-1.406,1.3,4.946,4.946,0,0,1-2.637.659,5.478,5.478,0,0,1-4.219-1.784,6.8,6.8,0,0,1-1.714-4.9,7.2,7.2,0,0,1,1.731-5.045,5.9,5.9,0,0,1,4.579-1.9,5.986,5.986,0,0,1,3.968,1.252,4.657,4.657,0,0,1,1.718,3.125ZM-5.16-7.77a1.7,1.7,0,0,0-1.349.545,2.72,2.72,0,0,0-.6,1.477h3.894a2.181,2.181,0,0,0-.6-1.507A1.87,1.87,0,0,0-5.16-7.77Zm0-2.065a5.021,5.021,0,0,1,2.153.448A3.772,3.772,0,0,1-1.424-7.972,4.828,4.828,0,0,1-.695-5.994,12.771,12.771,0,0,1-.616-4.1H-7.172a2.381,2.381,0,0,0,.905,2.021,2.132,2.132,0,0,0,1.248.36,1.8,1.8,0,0,0,1.257-.439A2.087,2.087,0,0,0-3.3-2.812H-.739a3.178,3.178,0,0,1-.888,1.731A4.349,4.349,0,0,1-5.072.316,4.858,4.858,0,0,1-8.3-.861a4.75,4.75,0,0,1-1.4-3.832A5.326,5.326,0,0,1-8.434-8.508,4.312,4.312,0,0,1-5.16-9.835Zm11.54.026a3.7,3.7,0,0,1,2.43.778,3.163,3.163,0,0,1,.945,2.58V0H7.189V-5.827a2.659,2.659,0,0,0-.2-1.16A1.422,1.422,0,0,0,5.58-7.726,1.744,1.744,0,0,0,3.831-6.645a3.713,3.713,0,0,0-.246,1.459V0h-2.5V-9.562H3.506v1.4A4.252,4.252,0,0,1,4.42-9.229,3.177,3.177,0,0,1,6.38-9.809ZM15.846-7.77a1.7,1.7,0,0,0-1.349.545,2.72,2.72,0,0,0-.6,1.477h3.894a2.181,2.181,0,0,0-.6-1.507A1.87,1.87,0,0,0,15.846-7.77Zm0-2.065A5.021,5.021,0,0,1,18-9.387a3.772,3.772,0,0,1,1.582,1.415,4.828,4.828,0,0,1,.729,1.978,12.771,12.771,0,0,1,.079,1.9H13.833a2.381,2.381,0,0,0,.905,2.021,2.132,2.132,0,0,0,1.248.36,1.8,1.8,0,0,0,1.257-.439,2.087,2.087,0,0,0,.466-.659h2.558a3.178,3.178,0,0,1-.888,1.731,4.349,4.349,0,0,1-3.445,1.4A4.858,4.858,0,0,1,12.708-.861a4.75,4.75,0,0,1-1.4-3.832,5.326,5.326,0,0,1,1.261-3.814A4.312,4.312,0,0,1,15.846-9.835Zm11.435.026q.07,0,.119,0l.215.013v2.566q-.237-.026-.422-.035t-.3-.009a2.078,2.078,0,0,0-2.03.984,3.829,3.829,0,0,0-.29,1.705V0H22.051V-9.58h2.391v1.67a5.3,5.3,0,0,1,1.011-1.31A2.752,2.752,0,0,1,27.281-9.809Zm7.084,5.15a2.722,2.722,0,0,1-.479.242,4.006,4.006,0,0,1-.664.171l-.562.105a3.632,3.632,0,0,0-1.134.343,1.149,1.149,0,0,0-.58,1.063,1.12,1.12,0,0,0,.356.927,1.34,1.34,0,0,0,.866.286A2.551,2.551,0,0,0,33.657-2a2.024,2.024,0,0,0,.708-1.731ZM32.844-5.827a3.91,3.91,0,0,0,.993-.22.753.753,0,0,0,.536-.712.845.845,0,0,0-.409-.813,2.553,2.553,0,0,0-1.2-.224,1.563,1.563,0,0,0-1.257.439,1.827,1.827,0,0,0-.352.879H28.74a3.676,3.676,0,0,1,.7-2.065,4.09,4.09,0,0,1,3.41-1.266,6.059,6.059,0,0,1,2.795.624A2.4,2.4,0,0,1,36.87-6.829v4.395q0,.457.018,1.107a1.392,1.392,0,0,0,.149.668.9.9,0,0,0,.369.29V0H34.681a2.79,2.79,0,0,1-.158-.545q-.044-.255-.07-.58a5.146,5.146,0,0,1-1.2.958A3.6,3.6,0,0,1,31.429.3,3.143,3.143,0,0,1,29.28-.444a2.649,2.649,0,0,1-.848-2.1,2.732,2.732,0,0,1,1.362-2.558,6.049,6.049,0,0,1,2.2-.615ZM41.651,0h-2.5V-12.955h2.5ZM54.2-1.934A3.092,3.092,0,0,0,56.756-3.12,5.3,5.3,0,0,0,57.7-6.5a5.305,5.305,0,0,0-.945-3.371A3.088,3.088,0,0,0,54.2-11.057,3.129,3.129,0,0,0,51.636-9.87,5.25,5.25,0,0,0,50.678-6.5a5.25,5.25,0,0,0,.958,3.375A3.129,3.129,0,0,0,54.2-1.934ZM60.408-6.5a7.006,7.006,0,0,1-1.96,5.344A5.649,5.649,0,0,1,54.2.36a5.649,5.649,0,0,1-4.245-1.512A6.989,6.989,0,0,1,47.989-6.5a6.852,6.852,0,0,1,1.969-5.344A5.649,5.649,0,0,1,54.2-13.351a5.649,5.649,0,0,1,4.245,1.512A6.869,6.869,0,0,1,60.408-6.5Zm5.4-6.592q.237,0,.431.013l.527.04V-11q-.211-.026-.708-.04a.814.814,0,0,0-.686.22.8.8,0,0,0-.189.514v.809h1.644v1.767H65.18V0h-2.5V-7.726h-1.4V-9.492h1.371v-.615a3.237,3.237,0,0,1,.519-2.118Q63.721-13.087,65.8-13.087Zm8.561.053h2.452v2.285H74.365Zm0,3.5h2.5V0h-2.5Zm-2.5-3.551q.229,0,.466.018l.492.035V-11q-.176-.009-.343-.013t-.4,0q-.589,0-.721.325a2.72,2.72,0,0,0-.114,1.02v.176H72.88v1.767H71.236V0h-2.5V-7.726h-1.4V-9.492h1.371v-.615a3.3,3.3,0,0,1,.677-2.276A3.242,3.242,0,0,1,71.86-13.087ZM84.982-6.144a2.223,2.223,0,0,0-.36-.967,1.511,1.511,0,0,0-1.31-.58,1.725,1.725,0,0,0-1.731,1.257,5.255,5.255,0,0,0-.246,1.775,4.832,4.832,0,0,0,.246,1.7,1.671,1.671,0,0,0,1.688,1.2,1.488,1.488,0,0,0,1.248-.475,2.362,2.362,0,0,0,.448-1.23h2.558A4.191,4.191,0,0,1,86.7-1.31,4.016,4.016,0,0,1,83.207.334a4.082,4.082,0,0,1-3.4-1.371,5.548,5.548,0,0,1-1.09-3.56,5.63,5.63,0,0,1,1.2-3.841,4.191,4.191,0,0,1,3.322-1.371A5,5,0,0,1,86.191-9a3.761,3.761,0,0,1,1.358,2.856ZM93.05-7.77a1.7,1.7,0,0,0-1.349.545,2.72,2.72,0,0,0-.6,1.477h3.894a2.181,2.181,0,0,0-.6-1.507A1.87,1.87,0,0,0,93.05-7.77Zm0-2.065a5.021,5.021,0,0,1,2.153.448,3.772,3.772,0,0,1,1.582,1.415,4.828,4.828,0,0,1,.729,1.978,12.771,12.771,0,0,1,.079,1.9H91.038a2.381,2.381,0,0,0,.905,2.021,2.132,2.132,0,0,0,1.248.36,1.8,1.8,0,0,0,1.257-.439,2.087,2.087,0,0,0,.466-.659h2.558a3.178,3.178,0,0,1-.888,1.731,4.349,4.349,0,0,1-3.445,1.4A4.858,4.858,0,0,1,89.913-.861a4.75,4.75,0,0,1-1.4-3.832,5.326,5.326,0,0,1,1.261-3.814A4.312,4.312,0,0,1,93.05-9.835ZM-52.766,28a2.66,2.66,0,0,0,.483,1.327,2.781,2.781,0,0,0,2.259.8,4.767,4.767,0,0,0,1.556-.211,1.5,1.5,0,0,0,1.134-1.5,1.109,1.109,0,0,0-.562-.993,6.049,6.049,0,0,0-1.767-.606l-1.371-.308a8.664,8.664,0,0,1-2.795-.993,3.159,3.159,0,0,1-1.31-2.8,3.744,3.744,0,0,1,1.266-2.892,5.351,5.351,0,0,1,3.718-1.151,5.653,5.653,0,0,1,3.494,1.085A3.876,3.876,0,0,1-45.146,22.9h-2.6a1.858,1.858,0,0,0-1.02-1.661,3.419,3.419,0,0,0-1.573-.325,2.937,2.937,0,0,0-1.67.422,1.343,1.343,0,0,0-.624,1.178,1.115,1.115,0,0,0,.615,1.037,7.531,7.531,0,0,0,1.688.536l2.232.536a5.772,5.772,0,0,1,2.215.94,3.168,3.168,0,0,1,1.16,2.646,3.734,3.734,0,0,1-1.358,2.949,5.689,5.689,0,0,1-3.836,1.173A6.223,6.223,0,0,1-53.9,31.178,3.841,3.841,0,0,1-55.35,28Zm8.859-3.709V22.508h1.336V19.836h2.479v2.672h1.556v1.784h-1.556v5.063a1.14,1.14,0,0,0,.149.734,1.645,1.645,0,0,0,.914.145q.114,0,.242,0t.25-.013v1.872l-1.187.044a3.184,3.184,0,0,1-2.426-.615,1.832,1.832,0,0,1-.422-1.327v-5.9Zm12.261,3.05a2.722,2.722,0,0,1-.479.242,4.006,4.006,0,0,1-.664.171l-.562.105a3.632,3.632,0,0,0-1.134.343,1.149,1.149,0,0,0-.58,1.063,1.12,1.12,0,0,0,.356.927,1.34,1.34,0,0,0,.866.286A2.551,2.551,0,0,0-32.353,30a2.024,2.024,0,0,0,.708-1.731Zm-1.521-1.169a3.91,3.91,0,0,0,.993-.22.753.753,0,0,0,.536-.712.845.845,0,0,0-.409-.813,2.553,2.553,0,0,0-1.2-.224,1.563,1.563,0,0,0-1.257.439,1.827,1.827,0,0,0-.352.879h-2.417a3.676,3.676,0,0,1,.7-2.065,4.09,4.09,0,0,1,3.41-1.266,6.059,6.059,0,0,1,2.795.624,2.4,2.4,0,0,1,1.222,2.355v4.395q0,.457.018,1.107a1.392,1.392,0,0,0,.149.668.9.9,0,0,0,.369.29V32h-2.725a2.79,2.79,0,0,1-.158-.545q-.044-.255-.07-.58a5.146,5.146,0,0,1-1.2.958,3.6,3.6,0,0,1-1.828.466,3.143,3.143,0,0,1-2.149-.743,2.649,2.649,0,0,1-.848-2.1,2.732,2.732,0,0,1,1.362-2.558,6.049,6.049,0,0,1,2.2-.615Zm5.265-1.881V22.508h1.336V19.836h2.479v2.672h1.556v1.784h-1.556v5.063a1.14,1.14,0,0,0,.149.734,1.645,1.645,0,0,0,.914.145q.114,0,.242,0t.25-.013v1.872l-1.187.044a3.184,3.184,0,0,1-2.426-.615,1.832,1.832,0,0,1-.422-1.327v-5.9Zm10.758-.062a1.7,1.7,0,0,0-1.349.545,2.72,2.72,0,0,0-.6,1.477H-15.2a2.181,2.181,0,0,0-.6-1.507A1.87,1.87,0,0,0-17.144,24.23Zm0-2.065a5.021,5.021,0,0,1,2.153.448,3.772,3.772,0,0,1,1.582,1.415,4.828,4.828,0,0,1,.729,1.978,12.771,12.771,0,0,1,.079,1.9h-6.557a2.381,2.381,0,0,0,.905,2.021,2.132,2.132,0,0,0,1.248.36,1.8,1.8,0,0,0,1.257-.439,2.087,2.087,0,0,0,.466-.659h2.558a3.178,3.178,0,0,1-.888,1.731,4.349,4.349,0,0,1-3.445,1.4,4.858,4.858,0,0,1-3.226-1.178,4.75,4.75,0,0,1-1.4-3.832,5.326,5.326,0,0,1,1.261-3.814A4.312,4.312,0,0,1-17.144,22.165Zm14.705,8.068a1.985,1.985,0,0,0,1.688-.782,3.639,3.639,0,0,0,.589-2.224,3.619,3.619,0,0,0-.589-2.219,1.99,1.99,0,0,0-1.687-.778,2,2,0,0,0-1.692.778,3.6,3.6,0,0,0-.593,2.219,3.619,3.619,0,0,0,.593,2.224A2,2,0,0,0-2.438,30.233Zm4.9-3.006a5.553,5.553,0,0,1-1.213,3.608,4.456,4.456,0,0,1-3.683,1.5,4.456,4.456,0,0,1-3.683-1.5,5.553,5.553,0,0,1-1.213-3.608,5.59,5.59,0,0,1,1.213-3.595A4.426,4.426,0,0,1-2.43,22.112a4.426,4.426,0,0,1,3.683,1.521A5.59,5.59,0,0,1,2.466,27.228Zm5.326-8.314q.237,0,.431.013l.527.04V21q-.211-.026-.708-.04a.814.814,0,0,0-.686.22.8.8,0,0,0-.189.514v.809H8.812v1.767H7.168V32h-2.5V24.274h-1.4V22.508H4.646v-.615a3.237,3.237,0,0,1,.519-2.118Q5.709,18.913,7.792,18.913Zm6.839.132h2.707V29.671h6.416V32H14.631ZM28,21.277h-2.54V18.966H28Zm-2.54,1.143H28V32h-2.54ZM35.6,22.209a3.548,3.548,0,0,1,2.958,1.362,5.53,5.53,0,0,1,1.068,3.516,6.181,6.181,0,0,1-1.055,3.7,3.815,3.815,0,0,1-4.852.993,3.809,3.809,0,0,1-.932-.984V32H30.337V19.063h2.5v4.605a3.655,3.655,0,0,1,1.046-1.02A3.107,3.107,0,0,1,35.6,22.209Zm-.642,7.98a1.719,1.719,0,0,0,1.5-.782A3.572,3.572,0,0,0,37,27.351a4.636,4.636,0,0,0-.264-1.687A1.837,1.837,0,0,0,34.89,24.4a1.864,1.864,0,0,0-1.872,1.239,4.651,4.651,0,0,0-.264,1.705,3.572,3.572,0,0,0,.545,2.039A1.866,1.866,0,0,0,34.96,30.189Zm6.847,3.647.316.018a3.948,3.948,0,0,0,.7-.026,1.262,1.262,0,0,0,.563-.2A1.352,1.352,0,0,0,43.8,33a1.319,1.319,0,0,0,.154-.58l-3.516-10h2.786l2.092,7.066,1.978-7.066h2.663l-3.287,9.422a13.23,13.23,0,0,1-1.5,3.379,2.856,2.856,0,0,1-2.215.655q-.334,0-.536,0t-.606-.031Zm14.906-6.5a2.722,2.722,0,0,1-.479.242,4.006,4.006,0,0,1-.664.171l-.562.105a3.632,3.632,0,0,0-1.134.343,1.149,1.149,0,0,0-.58,1.063,1.12,1.12,0,0,0,.356.927,1.34,1.34,0,0,0,.866.286A2.551,2.551,0,0,0,56.006,30a2.024,2.024,0,0,0,.708-1.731Zm-1.521-1.169a3.91,3.91,0,0,0,.993-.22.753.753,0,0,0,.536-.712.845.845,0,0,0-.409-.813,2.553,2.553,0,0,0-1.2-.224,1.563,1.563,0,0,0-1.257.439,1.827,1.827,0,0,0-.352.879H51.088a3.676,3.676,0,0,1,.7-2.065,4.09,4.09,0,0,1,3.41-1.266A6.059,6.059,0,0,1,58,22.815a2.4,2.4,0,0,1,1.222,2.355v4.395q0,.457.018,1.107a1.392,1.392,0,0,0,.149.668.9.9,0,0,0,.369.29V32H57.03a2.79,2.79,0,0,1-.158-.545q-.044-.255-.07-.58a5.146,5.146,0,0,1-1.2.958,3.6,3.6,0,0,1-1.828.466,3.143,3.143,0,0,1-2.149-.743,2.649,2.649,0,0,1-.848-2.1,2.732,2.732,0,0,1,1.362-2.558,6.049,6.049,0,0,1,2.2-.615Z" transform="translate(744 91)" fill="#060707"/>
        <g id="Layer_1-2" transform="translate(878.004 14)">
          <g id="Group_266" data-name="Group 266" transform="translate(-0.004)">
            <path id="Path_8132" data-name="Path 8132" d="M22.533,353.184s15.7,6.882,22.131,6.882S61,359.007,61,359.007l4.741,1.059,1.631,1.854-.211,4.133-.541,2.926s7,4.908,26.379,4.528,38.876-7.454,38.876-7.454l-9.836.951-2.08-1.91-.39-2.118,1.328-2.734,4.057-1.235,14.561.44s9.924-.8,10.274-.8,14.752-5.471,14.752-5.471v1.059l-5.97,13.589.175.647,8.607,7.178-2.168,1-28.22,4.057-.294.763-.422,2.118s-23.9,9.176-41.31,8.177a269.823,269.823,0,0,1-29.7-3.237l-12.648-3.469-1.623-1.882-.895-2.646-2.168-.176-9.148-.3L20.27,376.241l1.464-2.058s6.849-5.531,6.849-5.943-6.062-15.059-6.062-15.059Z" transform="translate(-12.167 -212.549)" fill="#060707"/>
            <ellipse id="Ellipse_317" data-name="Ellipse 317" cx="51.762" cy="68.637" rx="51.762" ry="68.637" transform="translate(30.02 19.156)" fill="#060707"/>
            <path id="Path_8133" data-name="Path 8133" d="M126.872,54.436c11.559,0,22.57,6.163,31.013,17.355,8.951,11.865,13.877,27.767,13.877,44.772s-4.93,32.907-13.877,44.772c-8.439,11.192-19.454,17.355-31.013,17.355s-22.57-6.163-31.013-17.355c-8.951-11.865-13.877-27.767-13.877-44.772s4.93-32.907,13.877-44.772C104.3,60.6,115.313,54.436,126.872,54.436m0-6.506c-28.588,0-51.762,30.729-51.762,68.637S98.284,185.2,126.872,185.2s51.762-30.729,51.762-68.637S155.459,47.93,126.872,47.93h0Z" transform="translate(-45.09 -28.774)" fill="#fff"/>
            <path id="Path_8134" data-name="Path 8134" d="M126.872,53.174c12.059,0,23.507,6.374,32.236,17.945,9.1,12.072,14.115,28.213,14.115,45.449s-5.013,33.377-14.115,45.449c-8.725,11.57-20.173,17.945-32.236,17.945s-23.507-6.374-32.236-17.945c-9.1-12.072-14.115-28.213-14.115-45.449S85.534,83.19,94.636,71.118c8.725-11.57,20.173-17.945,32.236-17.945m0-5.244c-28.588,0-51.762,30.729-51.762,68.637S98.284,185.2,126.872,185.2s51.762-30.729,51.762-68.637S155.459,47.93,126.872,47.93h0Z" transform="translate(-45.09 -28.774)" fill="url(#linear-gradient)"/>
            <path id="Path_8135" data-name="Path 8135" d="M126.872,52.282c12.436,0,24.206,6.526,33.141,18.379,9.209,12.211,14.282,28.515,14.282,45.911s-5.073,33.7-14.282,45.911c-8.935,11.849-20.709,18.379-33.141,18.379s-24.206-6.526-33.141-18.379c-9.209-12.211-14.282-28.515-14.282-45.911s5.073-33.7,14.282-45.911c8.935-11.849,20.709-18.379,33.141-18.379m0-4.352c-28.588,0-51.762,30.729-51.762,68.637S98.284,185.2,126.872,185.2s51.762-30.729,51.762-68.637S155.459,47.93,126.872,47.93h0Z" transform="translate(-45.09 -28.774)" fill="url(#linear-gradient-2)"/>
            <g id="Group_261" data-name="Group 261" transform="translate(38.084 29.64)">
              <circle id="Ellipse_318" data-name="Ellipse 318" cx="1.587" cy="1.587" r="1.587" transform="translate(42.109)" fill="url(#linear-gradient-3)"/>
              <circle id="Ellipse_319" data-name="Ellipse 319" cx="1.587" cy="1.587" r="1.587" transform="translate(52.592 1.587)" fill="url(#linear-gradient-4)"/>
              <circle id="Ellipse_320" data-name="Ellipse 320" cx="1.587" cy="1.587" r="1.587" transform="translate(64.889 9.028)" fill="url(#linear-gradient-5)"/>
              <circle id="Ellipse_321" data-name="Ellipse 321" cx="1.587" cy="1.587" r="1.587" transform="translate(71.84 16.538)" fill="url(#linear-gradient-6)"/>
              <circle id="Ellipse_322" data-name="Ellipse 322" cx="1.587" cy="1.587" r="1.587" transform="translate(77.031 25.247)" fill="url(#linear-gradient-7)"/>
              <circle id="Ellipse_323" data-name="Ellipse 323" cx="1.587" cy="1.587" r="1.587" transform="translate(80.572 33.987)" fill="url(#linear-gradient-8)"/>
              <circle id="Ellipse_324" data-name="Ellipse 324" cx="1.587" cy="1.587" r="1.587" transform="translate(83.09 43.955)" fill="url(#linear-gradient-9)"/>
              <circle id="Ellipse_325" data-name="Ellipse 325" cx="1.587" cy="1.587" r="1.587" transform="translate(84.217 54.814)" fill="url(#linear-gradient-10)"/>
              <circle id="Ellipse_326" data-name="Ellipse 326" cx="1.587" cy="1.587" r="1.587" transform="translate(83.598 65.425)" fill="url(#linear-gradient-11)"/>
              <circle id="Ellipse_327" data-name="Ellipse 327" cx="1.587" cy="1.587" r="1.587" transform="translate(81.527 76.488)" fill="url(#linear-gradient-12)"/>
              <circle id="Ellipse_328" data-name="Ellipse 328" cx="1.587" cy="1.587" r="1.587" transform="translate(78.07 85.932)" fill="url(#linear-gradient-13)"/>
              <circle id="Ellipse_329" data-name="Ellipse 329" cx="1.587" cy="1.587" r="1.587" transform="translate(73.262 94.536)" fill="url(#linear-gradient-14)"/>
              <circle id="Ellipse_330" data-name="Ellipse 330" cx="1.587" cy="1.587" r="1.587" transform="translate(67.227 101.958)" fill="url(#linear-gradient-15)"/>
              <circle id="Ellipse_331" data-name="Ellipse 331" cx="1.587" cy="1.587" r="1.587" transform="translate(50.857 112.002)" fill="url(#linear-gradient-16)"/>
              <circle id="Ellipse_332" data-name="Ellipse 332" cx="1.587" cy="1.587" r="1.587" transform="translate(59.942 107.709)" fill="url(#linear-gradient-17)"/>
              <circle id="Ellipse_333" data-name="Ellipse 333" cx="1.587" cy="1.587" r="1.587" transform="translate(31.625 1.587)" fill="url(#linear-gradient-4)"/>
              <circle id="Ellipse_334" data-name="Ellipse 334" cx="1.587" cy="1.587" r="1.587" transform="translate(19.328 9.028)" fill="url(#linear-gradient-5)"/>
              <circle id="Ellipse_335" data-name="Ellipse 335" cx="1.587" cy="1.587" r="1.587" transform="translate(12.378 16.538)" fill="url(#linear-gradient-6)"/>
              <circle id="Ellipse_336" data-name="Ellipse 336" cx="1.587" cy="1.587" r="1.587" transform="translate(7.19 25.247)" fill="url(#linear-gradient-7)"/>
              <circle id="Ellipse_337" data-name="Ellipse 337" cx="1.587" cy="1.587" r="1.587" transform="translate(3.649 33.987)" fill="url(#linear-gradient-8)"/>
              <circle id="Ellipse_338" data-name="Ellipse 338" cx="1.587" cy="1.587" r="1.587" transform="translate(1.131 43.955)" fill="url(#linear-gradient-9)"/>
              <circle id="Ellipse_339" data-name="Ellipse 339" cx="1.587" cy="1.587" r="1.587" transform="translate(0 54.814)" fill="url(#linear-gradient-10)"/>
              <circle id="Ellipse_340" data-name="Ellipse 340" cx="1.587" cy="1.587" r="1.587" transform="translate(0.619 65.425)" fill="url(#linear-gradient-11)"/>
              <circle id="Ellipse_341" data-name="Ellipse 341" cx="1.587" cy="1.587" r="1.587" transform="translate(2.69 76.488)" fill="url(#linear-gradient-12)"/>
              <circle id="Ellipse_342" data-name="Ellipse 342" cx="1.587" cy="1.587" r="1.587" transform="translate(6.151 85.932)" fill="url(#linear-gradient-13)"/>
              <circle id="Ellipse_343" data-name="Ellipse 343" cx="1.587" cy="1.587" r="1.587" transform="translate(10.959 94.536)" fill="url(#linear-gradient-14)"/>
              <circle id="Ellipse_344" data-name="Ellipse 344" cx="1.587" cy="1.587" r="1.587" transform="translate(16.994 101.958)" fill="url(#linear-gradient-15)"/>
              <circle id="Ellipse_345" data-name="Ellipse 345" cx="1.587" cy="1.587" r="1.587" transform="translate(33.364 112.002)" fill="url(#linear-gradient-16)"/>
              <circle id="Ellipse_346" data-name="Ellipse 346" cx="1.587" cy="1.587" r="1.587" transform="translate(24.28 107.709)" fill="url(#linear-gradient-17)"/>
            </g>
            <rect id="Rectangle_1555" data-name="Rectangle 1555" width="59.462" height="1.707" transform="translate(52.049 57.037)" fill="#d1ae6c"/>
            <g id="Group_262" data-name="Group 262" transform="translate(42.411)">
              <path id="Path_8136" data-name="Path 8136" d="M194.89,61.216a21.2,21.2,0,0,1-1.171,6.958,21.883,21.883,0,0,1-39.974.072A21.2,21.2,0,0,1,154.9,51.52a18.774,18.774,0,0,0-.372,3.757,19.19,19.19,0,1,0,38.38,0,19.379,19.379,0,0,0-.372-3.757,21.036,21.036,0,0,1,2.354,9.7Z" transform="translate(-134.345 -30.929)" fill="#a37f42"/>
              <path id="Path_8137" data-name="Path 8137" d="M185.185,18.237l5.923-4.3,5.927,4.3-2.262-6.966,5.923-4.3h-7.322L191.108,0l-2.262,6.966H181.52l5.927,4.3Z" transform="translate(-151.737)" fill="#edcc80"/>
              <path id="Path_8138" data-name="Path 8138" d="M194.89,52.949a21.17,21.17,0,1,1-42.34,0,20.987,20.987,0,0,1,2.354-9.7,21.371,21.371,0,0,1,4.081-5.5,18.569,18.569,0,1,0,32.692,16.031,18.706,18.706,0,0,0,.608-4.732,18.5,18.5,0,0,0-3.833-11.3,21.371,21.371,0,0,1,4.081,5.5,21.036,21.036,0,0,1,2.354,9.7Z" transform="translate(-134.345 -22.663)" fill="url(#linear-gradient-32)"/>
              <rect id="Rectangle_1556" data-name="Rectangle 1556" width="15.003" height="1.707" transform="translate(31.541 52.967)" fill="url(#linear-gradient-33)"/>
              <path id="Path_8139" data-name="Path 8139" d="M261.419,153.579a3.089,3.089,0,1,0-3.089-3.089A3.089,3.089,0,0,0,261.419,153.579Z" transform="translate(-197.849 -88.49)" fill="url(#linear-gradient-34)"/>
              <path id="Path_8140" data-name="Path 8140" d="M206.98,149.61v87.63L217.4,217.4l-6-67.791Z" transform="translate(-167.022 -89.816)" fill="url(#linear-gradient-35)"/>
              <path id="Path_8141" data-name="Path 8141" d="M258.762,197.895,244.25,162.86l-14.52,35.035Z" transform="translate(-180.679 -97.771)" fill="url(#linear-gradient-36)"/>
              <path id="Path_8142" data-name="Path 8142" d="M244.432,267.227a15.2,15.2,0,0,0,14.392-10.307H230.04a15.2,15.2,0,0,0,14.392,10.307Z" transform="translate(-180.865 -154.238)" fill="url(#linear-gradient-37)"/>
              <path id="Path_8143" data-name="Path 8143" d="M141.749,150.489a3.089,3.089,0,1,0-3.089,3.089A3.089,3.089,0,0,0,141.749,150.489Z" transform="translate(-124.152 -88.49)" fill="url(#linear-gradient-38)"/>
              <path id="Path_8144" data-name="Path 8144" d="M176.33,217.4l10.411,19.839V149.61h-4.412Z" transform="translate(-148.621 -89.816)" fill="url(#linear-gradient-39)"/>
              <path id="Path_8145" data-name="Path 8145" d="M136.032,197.895l-14.52-35.035L107,197.895Z" transform="translate(-107 -97.771)" fill="url(#linear-gradient-36)"/>
              <path id="Path_8146" data-name="Path 8146" d="M107.31,256.92a15.2,15.2,0,0,0,28.784,0Z" transform="translate(-107.186 -154.238)" fill="url(#linear-gradient-37)"/>
            </g>
            <path id="Path_8147" data-name="Path 8147" d="M53.845,160.17l.923,2.838h2.981l-2.41,1.755.919,2.838-2.414-1.755-2.41,1.755.919-2.838-2.414-1.755h2.985Z" transform="translate(-29.979 -96.349)" fill="url(#linear-gradient-42)"/>
            <path id="Path_8148" data-name="Path 8148" d="M7.995,219.2l.923,2.838H11.9l-2.41,1.755.919,2.838-2.414-1.754-2.41,1.754.919-2.838L4.09,222.038H7.075Z" transform="translate(-2.454 -131.858)" fill="url(#linear-gradient-43)"/>
            <path id="Path_8149" data-name="Path 8149" d="M60.1,275.15l.923,2.838h2.981l-2.41,1.755.919,2.838L60.1,280.825l-2.41,1.755.919-2.838L56.2,277.988h2.985Z" transform="translate(-33.737 -165.514)" fill="url(#linear-gradient-44)"/>
            <g id="Group_263" data-name="Group 263" transform="translate(0 22.049)">
              <path id="Path_8150" data-name="Path 8150" d="M14.086,214.08s3.793,6.706.352,9.264S.917,228.2,1.556,234.97c.584,6.167,8.537,10.947,8.537,10.947s13.788-6.419,15.731-16.038-11.738-15.795-11.738-15.795Z" transform="translate(-0.915 -150.569)" fill="url(#linear-gradient-45)"/>
              <path id="Path_8151" data-name="Path 8151" d="M41.909,55.174A60.736,60.736,0,0,1,43.5,69.47c0,8.385-2.47,16.766-8.3,22.325S20.375,99.221,19.668,99.92,13.4,87.647,25.846,75.557c4.149-3.793,15.619-8.913,16.062-20.387Z" transform="translate(-10.698 -55.17)" fill="url(#linear-gradient-46)"/>
              <path id="Path_8152" data-name="Path 8152" d="M14.515,120.11s-6.179,15.143,9.176,27.057c3.793,3,10.767,12.8,5.208,26.825l-2.938,5.587s4.348-8.661-9.328-18.552C7.1,154.489.926,138.854,14.515,120.11Z" transform="translate(-3.982 -94.156)" fill="url(#linear-gradient-47)"/>
              <path id="Path_8153" data-name="Path 8153" d="M.965,259.24s-5.911,20.431,11.47,27.577S29.277,291.581,40.1,301.64c.58-5.3.228-21.178-25.1-29.827C11.908,270.842-.71,270.047.965,259.24Z" transform="translate(0.004 -177.681)" fill="url(#linear-gradient-48)"/>
            </g>
            <g id="Group_264" data-name="Group 264" transform="translate(122.773 22.049)">
              <path id="Path_8154" data-name="Path 8154" d="M358.76,214.08s-3.793,6.706-.352,9.264,13.525,4.852,12.885,11.622c-.584,6.167-8.537,10.947-8.537,10.947s-13.788-6.419-15.731-16.039,11.738-15.795,11.738-15.795Z" transform="translate(-331.7 -150.569)" fill="url(#linear-gradient-45)"/>
              <path id="Path_8155" data-name="Path 8155" d="M329.147,55.174a60.734,60.734,0,0,0-1.587,14.3c0,8.385,2.47,16.766,8.3,22.325s14.824,7.426,15.531,8.125,6.267-12.274-6.179-24.364c-4.149-3.793-15.619-8.913-16.062-20.387Z" transform="translate(-320.127 -55.17)" fill="url(#linear-gradient-46)"/>
              <path id="Path_8156" data-name="Path 8156" d="M358.552,120.11s6.179,15.143-9.176,27.057c-3.793,3-10.767,12.8-5.208,26.825l2.938,5.587s-4.348-8.661,9.328-18.552c9.532-6.538,15.707-22.173,2.118-40.918Z" transform="translate(-328.854 -94.156)" fill="url(#linear-gradient-47)"/>
              <path id="Path_8157" data-name="Path 8157" d="M348.22,259.24s5.911,20.431-11.47,27.577-16.842,4.764-27.661,14.824c-.58-5.3-.228-21.178,25.1-29.827C337.278,270.842,349.9,270.047,348.22,259.24Z" transform="translate(-308.963 -177.681)" fill="url(#linear-gradient-48)"/>
            </g>
            <path id="Path_8158" data-name="Path 8158" d="M345.445,160.17l-.923,2.838H341.54l2.414,1.755-.923,2.838,2.414-1.755,2.414,1.755-.923-2.838,2.414-1.755h-2.982Z" transform="translate(-205.747 -96.349)" fill="url(#linear-gradient-42)"/>
            <path id="Path_8159" data-name="Path 8159" d="M391.295,219.2l-.923,2.838H387.39l2.414,1.755-.923,2.838,2.414-1.754,2.414,1.754-.923-2.838,2.414-1.755h-2.981Z" transform="translate(-233.272 -131.858)" fill="url(#linear-gradient-43)"/>
            <path id="Path_8160" data-name="Path 8160" d="M339.185,275.15l-.923,2.838H335.28l2.414,1.755-.923,2.838,2.414-1.755,2.414,1.755-.923-2.838,2.414-1.755h-2.981Z" transform="translate(-201.989 -165.514)" fill="url(#linear-gradient-44)"/>
            <g id="Group_265" data-name="Group 265" transform="translate(6.532 139.176)">
              <path id="Path_8161" data-name="Path 8161" d="M164.852,373.172c-2.526-2.162-5.028-4.356-7.6-6.467a1.343,1.343,0,0,1-.4-1.9q3.019-6.768,5.939-13.577a4.481,4.481,0,0,0,.155-1.239c-.414.08-.827.16-1.237.244a.781.781,0,0,0-.195.108c-6.647,3.481-13.62,6.031-21.162,6.3a125.967,125.967,0,0,1-12.618-.611,21.537,21.537,0,0,0-7.653.592,4.176,4.176,0,0,0-3.325,4.46c-.012,1.763-.064,3.525.008,5.284.036.9-.282,1.211-1.134,1.387a119.676,119.676,0,0,1-28.242,2.478,123.9,123.9,0,0,1-20.522-2.482c-.875-.176-1.146-.528-1.11-1.407.068-1.759.02-3.525.016-5.288a4.138,4.138,0,0,0-3.047-4.324,7.7,7.7,0,0,0-2.5-.564c-3.648.044-7.3.1-10.935.332a46.54,46.54,0,0,1-11.381-.26,53.744,53.744,0,0,1-17-6.031,15.708,15.708,0,0,0-1.524-.667c-.1.1-.187.192-.282.292.175.5.318,1.023.533,1.507q3.013,6.768,6.058,13.529a1.282,1.282,0,0,1-.422,1.806c-2.474,1.99-4.9,4.045-7.331,6.087-.5.42-.963.879-1.6,1.467.644.252,1.042.424,1.452.564a87.278,87.278,0,0,0,28.708,4.5c1.416-.012,1.531.02,1.384,1.495-.135,1.347.446,1.87,1.587,2.342a96.332,96.332,0,0,0,26.882,6.435,137.551,137.551,0,0,0,36.035-.831,90.414,90.414,0,0,0,20.577-5.571c1.277-.528,1.893-1.139,1.639-2.526-.195-1.075.263-1.387,1.352-1.375a91.994,91.994,0,0,0,29.066-4.412c.354-.112.688-.288,1.165-.492-.553-.492-.939-.843-1.333-1.183Zm-117.178-9.5c-.052,1.159-.012,2.326-.012,3.485v10.319a93.643,93.643,0,0,1-29.173-4.148c1.977-1.691,3.815-3.257,5.652-4.824.712-.608,1.408-1.231,2.152-1.794a1.052,1.052,0,0,0,.322-1.519c-1.85-4.049-3.652-8.121-5.466-12.186-.088-.2-.159-.408-.33-.839.7.324,1.221.564,1.742.811,6.17,2.981,12.606,5.184,19.479,5.439,4.041.152,8.111-.348,12.164-.592a21.428,21.428,0,0,1,7.554.4,5.2,5.2,0,0,1,2.18,1.059,3.008,3.008,0,0,1,.859,2.118,2.175,2.175,0,0,1-1.424,1.455,19.017,19.017,0,0,1-5.088.4c-2.4-.216-4.769-.8-7.152-1.239-.4-.072-.8-.216-1.2-.26-1.476-.168-2.188.42-2.255,1.914ZM132.826,381.3a84.206,84.206,0,0,1-19.137,5.363,137.166,137.166,0,0,1-39.026.843,99.987,99.987,0,0,1-20.919-4.652c-1.516-.524-3-1.155-4.463-1.791a1.147,1.147,0,0,1-.636-.767c-.036-5.467-.028-10.935-.028-16.422,28.513,11.023,56.843,10.979,85.268.02v7.066c0,2.886-.04,5.775.016,8.661a1.522,1.522,0,0,1-1.07,1.683Zm2.064-3.825c-.024-.528-.06-.927-.06-1.327,0-4.049.012-8.1-.008-12.142-.008-1.97-.752-2.582-2.681-2.142a39.6,39.6,0,0,1-9.929,1.479,14.536,14.536,0,0,1-2.876-.368,1.962,1.962,0,0,1-1.706-1.579,2.227,2.227,0,0,1,1.1-2.286,8.378,8.378,0,0,1,5-1.347c4.022.124,8.039.364,12.053.671a42.809,42.809,0,0,0,17.972-2.87c2.617-.951,5.159-2.114,7.916-3.257-1.2,2.67-2.343,5.224-3.485,7.777-.792,1.774-1.543,3.573-2.375,5.327-.314.667.04.947.449,1.3q3.538,3.015,7.065,6.043c.167.144.326.3.656.6a93.7,93.7,0,0,1-29.1,4.121Z" transform="translate(-16.34 -349.54)" fill="url(#linear-gradient-56)"/>
              <path id="Path_8162" data-name="Path 8162" d="M149.518,408.981a1.629,1.629,0,0,0-.26,2.17,11.272,11.272,0,0,1,.807,3.121h-3.841a1.542,1.542,0,0,0,.208-2.434,3.05,3.05,0,0,0-3.249-.987c-1.2.24-1.443,1.223-1.759,2.126.611.244,1.139.452,1.663.659-.036.092-.072.188-.108.28-.627-.088-1.255-.152-1.878-.264-3.241-.58-6.483-1.183-9.724-1.751a.865.865,0,0,1-.831-.967c-.048-1.459-.136-2.922-.24-4.38a8.857,8.857,0,0,0-.28-1.275c-1.235.651-1.866,1.355-1.719,2.666.2,1.783.268,3.585.348,5.38a1.013,1.013,0,0,0,.975,1.107q6.69,1.187,13.369,2.418c.619.112,1.115.008,1.391-.887a1.589,1.589,0,0,0,1.755,1.187c.859.032,1.719.152,2.582.176,2.286.064,2.23.552,2.762-2.222a1.388,1.388,0,0,0,.032-.556,8.286,8.286,0,0,1,.18-2.8,5.014,5.014,0,0,1,1.023-.955c-.887-.831-1.659-1.559-2.75-2.582a5.77,5.77,0,0,1-.456.771Z" transform="translate(-83.797 -383.003)" fill="url(#linear-gradient-57)"/>
              <path id="Path_8163" data-name="Path 8163" d="M263.452,404.034c-.212.32-.492.711-.735,1.123a1.757,1.757,0,0,0-.044,2.138,4.215,4.215,0,0,1,.492,3.081c-1.279.236-2.518.468-3.845.711-.092-1.027-.172-1.942-.276-3.077-1.323,1.019-2.206,1.922-1.854,3.533-1.79.34-3.461.651-5.22.983-.172-2.118-.328-4.065-.484-6.011l-.3-.06c-.631.727-1.627,1.275-1.6,2.382.048,2.238.248,4.468.4,6.87.5-.044.827-.056,1.147-.112,1.547-.268,3.1-.512,4.628-.847,1.359-.448,1.223-.847,1.882-1.123.544.016.683.528,1.87.388a16.955,16.955,0,0,0,2.314-.432c2.586-.671,2.714-.156,2.894-3.341.056-1.007.024-3.117.024-3.117a10.079,10.079,0,0,1,1.107-1.347c-.871-.635-1.595-1.167-2.386-1.746Z" transform="translate(-156.854 -382.252)" fill="url(#linear-gradient-58)"/>
              <path id="Path_8164" data-name="Path 8164" d="M113.733,409.389a1.318,1.318,0,0,0-1.111-.252,2.743,2.743,0,0,0-1.563,2.3,2.261,2.261,0,0,1,1.966.184c-.368.048-.592.06-.807.108a2,2,0,0,0-1.747,2.686c.148.807.268,1.619.428,2.426a7.6,7.6,0,0,0,.328.935c1.347-1.007.911-2.29.847-3.473,1.431-.412,2.386.556,3.585,1.071.3-.9,1.011-1.743.556-2.578a22.368,22.368,0,0,0-2.482-3.409Z" transform="translate(-72.992 -385.302)" fill="url(#linear-gradient-59)"/>
              <path id="Path_8165" data-name="Path 8165" d="M192.83,415.888l.356,2.794c.192,1.391.388,2.782.6,4.32a3.318,3.318,0,0,0,1.547-3.025,56.759,56.759,0,0,0-.691-6.007l-1.815,1.922Z" transform="translate(-122.631 -388.22)" fill="url(#linear-gradient-60)"/>
              <path id="Path_8166" data-name="Path 8166" d="M237.5,411.242a1.626,1.626,0,0,0-.116.236,1.129,1.129,0,0,0-.108.464.575.575,0,0,0,.024.084l.072.2.164-.136c.731-.6.911-.743.927-.755a6.337,6.337,0,0,1,1.1-.484l.068-.024.3-.947-1.635.6c-.4-.08-.54-.192-.54-.272a.542.542,0,0,1,.316-.464,1.253,1.253,0,0,1,.643-.172,1.051,1.051,0,0,1,.272.028l.132.036.28-.747-.128-.056a1.022,1.022,0,0,0-.436-.088,1.846,1.846,0,0,0-1.247.484,1.569,1.569,0,0,0-.591,1.219.781.781,0,0,0,.22.564,2.681,2.681,0,0,0,.3.232Z" transform="translate(-149.228 -385.08)" fill="url(#linear-gradient-61)"/>
              <path id="Path_8167" data-name="Path 8167" d="M269.543,407.207l-1.97-.947-1.563,1.563,1.954.967Z" transform="translate(-166.707 -383.591)" fill="url(#linear-gradient-62)"/>
              <path id="Path_8168" data-name="Path 8168" d="M216.7,439.313l1.954.967,1.579-1.579-1.97-.951Z" transform="translate(-137.01 -402.496)" fill="url(#linear-gradient-63)"/>
              <path id="Path_8169" data-name="Path 8169" d="M293.61,402.522l.208,2.806c.12,1.4.24,2.8.372,4.344a3.317,3.317,0,0,0,1.707-2.938,56.427,56.427,0,0,0-.372-6.035l-1.914,1.822Z" transform="translate(-183.325 -380.253)" fill="url(#linear-gradient-64)"/>
              <path id="Path_8170" data-name="Path 8170" d="M221.634,416.834c-.324.512-.568.963-.875,1.375-.484.647-.54,1.191.176,1.723a4.564,4.564,0,0,1,.675.967l-3.753.584v-2.954l-1.759.923s.14,2.03-.1,2.05c-1.455.12-3.613.2-5.072.184-1.107-.012-1.571-.687-1.427-1.814.048-.38.1-.759.148-1.139-.152-.1-.3-.2-.452-.3a6.858,6.858,0,0,0-.288.715,19.478,19.478,0,0,0-.711,2.678c-.308,2.266.679,2.714,2.818,2.642,1.2-.04,2.482.072,3.681.06a1.519,1.519,0,0,0,1.7-1.147,1.729,1.729,0,0,0,2.066.951c.963-.148,1.946-.2,2.886-.432a1.924,1.924,0,0,0,1.059-.823,5.872,5.872,0,0,0,.8-3.453,3.421,3.421,0,0,0-1.559-2.79Z" transform="translate(-131.887 -389.937)" fill="url(#linear-gradient-65)"/>
              <path id="Path_8171" data-name="Path 8171" d="M59.3,380.81l-4.64,10.979h3.177l.779-1.946h4.2l.8,1.946h3.237l-4.64-10.979Zm.2,6.682,1.231-3.1,1.215,3.1Z" transform="translate(-39.345 -368.313)" fill="url(#linear-gradient-66)"/>
              <path id="Path_8172" data-name="Path 8172" d="M331.4,387.412h2.15v1.323a3.077,3.077,0,0,1-1.743.452,2.88,2.88,0,0,1-2.958-3.022v-.032a2.863,2.863,0,0,1,2.786-2.989,3.845,3.845,0,0,1,2.63,1.027l1.774-2.134a6.361,6.361,0,0,0-4.424-1.587,5.657,5.657,0,0,0-5.871,5.667v.032a5.6,5.6,0,0,0,5.935,5.635,7.373,7.373,0,0,0,4.736-1.683v-4.9H331.4v2.21Z" transform="translate(-202.793 -368.096)" fill="url(#linear-gradient-67)"/>
            </g>
          </g>
        </g>
      </g>
    </g>
  </g>
</svg>
